<?xml version="1.0" standalone="no"?>
<!DOCTYPE svg PUBLIC "-//W3C//DTD SVG 20010904//EN"
 "http://www.w3.org/TR/2001/REC-SVG-20010904/DTD/svg10.dtd">
<svg version="1.0" xmlns="http://www.w3.org/2000/svg"
 width="816.000000pt" height="816.000000pt" viewBox="0 0 816.000000 816.000000"
 preserveAspectRatio="xMidYMid meet">
<metadata>
Created by potrace 1.11, written by Peter Selinger 2001-2013
</metadata>
<g transform="translate(0.000000,816.000000) scale(0.100000,-0.100000)"
fill="#000000" stroke="none">
<path d="M6425 8151 c-6 -5 -30 -11 -52 -13 -7 -1 -13 -5 -13 -10 0 -4 -9 -8
-19 -8 -48 0 -284 -138 -375 -219 -62 -56 -140 -138 -180 -191 -22 -30 -47
-59 -53 -63 -7 -4 -13 -15 -13 -22 0 -8 -4 -15 -10 -15 -5 0 -10 -7 -10 -15 0
-8 -4 -15 -10 -15 -5 0 -10 -7 -10 -15 0 -8 -5 -15 -12 -15 -6 0 -8 -3 -5 -7
4 -3 1 -13 -6 -22 -25 -30 -86 -148 -80 -155 3 -3 2 -6 -4 -6 -5 0 -16 -18
-23 -40 -7 -22 -18 -40 -23 -40 -6 0 -8 -3 -4 -6 5 -6 -18 -77 -43 -129 -18
-38 -70 -226 -94 -343 -22 -108 -31 -158 -42 -252 -3 -19 -6 -51 -9 -70 -17
-138 -22 -406 -11 -575 10 -141 28 -312 36 -335 1 -3 3 -9 4 -15 1 -5 6 -35
11 -65 5 -30 9 -57 10 -60 1 -3 4 -18 8 -35 13 -54 19 -80 22 -100 3 -20 31
-140 50 -215 1 -4 9 -43 20 -95 2 -5 8 -37 15 -70 17 -80 16 -78 23 -95 3 -8
8 -28 11 -45 2 -16 7 -37 10 -45 3 -8 8 -31 11 -50 3 -19 7 -39 9 -45 1 -5 6
-31 11 -58 4 -26 11 -50 16 -53 5 -3 7 -9 5 -13 -3 -4 1 -31 9 -60 7 -28 14
-54 14 -56 2 -12 12 -58 37 -165 14 -63 28 -126 31 -140 2 -14 9 -45 14 -70 6
-25 13 -56 15 -69 3 -12 12 -53 20 -90 9 -36 17 -73 19 -81 2 -8 9 -37 15 -65
7 -27 14 -63 16 -80 3 -16 7 -37 10 -45 3 -8 8 -26 10 -40 2 -14 7 -36 11 -50
9 -38 11 -43 18 -75 9 -43 13 -61 31 -140 8 -38 19 -88 24 -110 4 -22 11 -51
14 -65 3 -14 15 -68 26 -120 12 -52 24 -106 27 -120 3 -14 7 -31 9 -39 1 -7 8
-34 14 -60 6 -25 12 -55 15 -66 2 -11 11 -54 20 -95 9 -41 18 -83 20 -94 12
-57 77 -345 82 -366 4 -14 7 -32 8 -41 1 -9 6 -29 10 -45 10 -36 12 -43 19
-76 3 -16 8 -38 11 -50 3 -13 12 -54 21 -93 8 -38 19 -88 24 -110 4 -22 11
-51 14 -65 9 -42 38 -174 41 -190 2 -8 4 -15 5 -15 1 0 3 -9 5 -20 13 -74 17
-92 21 -105 3 -8 8 -26 10 -40 6 -32 42 -194 54 -240 13 -49 24 -113 23 -128
0 -6 3 -12 7 -12 4 0 7 -6 7 -13 -2 -15 23 -128 30 -141 3 -4 8 -4 12 2 3 5
35 31 70 57 72 53 77 57 126 100 19 17 56 48 82 70 71 60 290 279 370 370 39
44 105 125 147 180 43 55 83 107 89 115 7 8 21 28 31 45 11 16 23 34 28 40 59
68 229 369 336 595 42 88 150 363 157 400 1 3 15 50 32 105 41 128 63 215 99
390 2 11 7 33 10 50 4 16 8 43 10 60 1 16 5 46 9 65 15 90 20 128 32 260 10
116 10 565 0 670 -5 47 -10 102 -12 122 -2 21 -9 63 -14 94 -6 32 -9 59 -7 61
2 3 0 19 -5 36 -5 18 -12 51 -15 75 -2 24 -9 54 -14 68 -6 13 -9 28 -8 32 1 4
-4 30 -11 58 -7 29 -14 60 -16 70 -2 11 -4 19 -5 19 -1 0 -3 7 -5 15 -7 35
-27 109 -46 166 -11 33 -21 69 -23 80 -2 10 -10 33 -17 49 -6 17 -13 35 -15
42 -1 6 -28 76 -59 155 -66 165 -131 303 -190 403 -22 39 -44 77 -48 85 -17
35 -155 249 -167 260 -3 3 -17 21 -30 40 -14 19 -28 40 -32 45 -5 6 -31 39
-59 75 -92 119 -116 149 -204 250 -22 25 -62 73 -90 105 -27 32 -55 63 -60 69
-6 6 -42 47 -80 91 -38 44 -71 82 -75 85 -8 7 -114 139 -178 222 -29 37 -52
72 -52 78 0 5 -4 10 -9 10 -5 0 -13 9 -16 20 -3 11 -12 26 -18 32 -15 16 -86
162 -99 203 -45 142 -46 304 -4 425 14 41 28 84 31 94 2 11 8 22 12 25 8 6 33
47 33 54 0 6 -29 4 -35 -2z"/>
<path d="M3248 7915 c-27 -7 -48 -11 -48 -9 0 3 -9 0 -20 -6 -11 -6 -39 -13
-62 -16 -24 -4 -50 -10 -59 -15 -9 -4 -29 -11 -46 -13 -16 -3 -89 -26 -163
-51 -74 -24 -142 -47 -151 -49 -18 -5 -161 -64 -253 -104 -101 -44 -315 -156
-411 -214 -49 -30 -101 -61 -115 -69 -14 -7 -27 -16 -30 -19 -3 -3 -41 -30
-85 -60 -44 -30 -84 -58 -90 -62 -5 -4 -39 -31 -75 -59 -227 -176 -441 -378
-600 -569 -25 -30 -52 -61 -60 -70 -43 -45 -284 -386 -278 -393 2 -1 -7 -13
-19 -27 -13 -13 -23 -30 -23 -37 0 -7 -4 -13 -10 -13 -5 0 -10 -4 -10 -9 0 -5
-24 -51 -53 -102 -58 -102 -130 -247 -125 -251 1 -2 -7 -19 -19 -38 -36 -60
-192 -475 -207 -553 -2 -6 -8 -32 -15 -57 -7 -25 -15 -52 -16 -60 -2 -8 -11
-44 -20 -80 -9 -36 -17 -74 -19 -85 -3 -18 -11 -61 -23 -120 -2 -11 -6 -36 -9
-55 -3 -19 -7 -45 -9 -56 -2 -12 -7 -48 -10 -80 -4 -33 -9 -68 -11 -79 -25
-130 -24 -744 1 -873 2 -11 6 -45 9 -74 4 -29 8 -64 10 -78 3 -14 7 -41 10
-60 6 -37 14 -80 22 -120 3 -14 7 -38 10 -55 3 -16 12 -57 21 -90 8 -33 17
-67 18 -75 2 -8 4 -15 5 -15 1 0 3 -9 5 -20 5 -27 35 -135 45 -160 4 -11 25
-69 45 -130 49 -143 114 -300 188 -450 65 -133 158 -298 169 -303 5 -2 8 -8 8
-13 0 -18 212 -329 255 -375 5 -6 21 -26 35 -45 102 -138 384 -425 565 -574
26 -22 53 -44 59 -50 6 -5 38 -30 71 -54 33 -25 63 -49 66 -54 9 -13 41 97 66
228 4 22 8 42 8 45 7 25 18 72 25 105 5 22 14 60 20 85 6 25 13 56 15 70 4 23
15 74 50 225 8 33 16 71 19 85 2 14 9 43 14 65 6 22 13 54 16 70 2 17 9 45 15
64 6 18 10 36 9 40 0 3 1 8 2 11 1 3 4 19 6 35 3 17 9 44 14 60 5 17 11 41 14
55 2 14 11 55 20 91 8 37 17 78 20 90 3 13 8 35 11 49 3 14 8 38 11 54 2 16 7
32 9 35 2 4 6 24 9 46 4 22 13 64 20 92 8 29 12 53 9 53 -3 0 0 7 7 15 7 8 10
15 7 15 -3 0 -1 17 4 38 29 123 51 221 56 252 3 19 8 37 12 40 3 3 7 14 7 25
1 20 4 34 23 115 5 25 12 57 15 73 2 15 7 35 10 45 3 9 7 28 10 42 2 14 9 44
15 68 7 24 14 55 16 70 2 15 6 34 9 42 3 8 8 26 10 40 3 14 7 35 10 48 9 35
16 65 22 97 3 17 7 35 8 40 2 6 7 28 11 50 12 55 12 54 15 60 4 7 20 89 25
130 1 6 5 17 8 25 4 12 39 163 62 275 3 11 10 45 17 75 7 30 13 60 14 65 1 6
3 12 4 15 1 3 3 12 5 21 1 10 11 50 20 90 9 41 19 85 21 99 3 14 10 43 15 65
5 22 11 49 14 60 10 51 17 84 30 135 8 30 16 69 19 85 7 37 11 57 26 120 6 28
14 59 16 70 2 11 6 29 8 40 35 153 78 343 80 355 1 8 6 29 9 45 4 17 9 39 11
50 3 11 12 52 21 90 9 39 18 79 20 90 1 11 5 27 8 35 3 8 8 29 11 45 3 17 7
39 10 50 17 75 28 123 32 145 3 14 7 33 10 42 3 10 7 30 10 45 3 16 10 46 16
68 5 22 12 51 15 64 2 13 11 54 19 90 8 36 17 80 20 96 3 17 10 48 16 70 5 22
12 51 14 65 3 14 7 33 10 42 3 9 6 25 8 35 2 10 23 101 46 203 23 102 43 194
46 205 2 11 19 91 39 177 19 86 37 167 39 180 3 13 5 24 7 26 2 2 3 6 12 52 4
19 10 46 13 60 3 14 7 36 10 50 2 14 7 32 10 40 3 8 10 38 15 65 17 86 20 97
32 145 4 14 9 36 11 50 3 14 8 39 11 55 8 36 -4 39 -77 20z"/>
<path d="M4052 6078 c-9 -29 -22 -95 -27 -138 -1 -8 -5 -31 -10 -50 -5 -19 -9
-44 -11 -55 -1 -11 -3 -20 -4 -20 -2 0 -6 -21 -14 -69 -4 -21 -8 -48 -11 -60
-3 -12 -7 -32 -9 -46 -10 -52 -17 -87 -32 -165 -9 -44 -17 -89 -19 -100 -1
-11 -5 -29 -8 -40 -3 -11 -9 -40 -12 -65 -4 -24 -9 -48 -11 -52 -2 -3 -7 -28
-10 -54 -3 -27 -7 -51 -9 -55 -2 -3 -7 -21 -10 -40 -5 -30 -31 -172 -41 -224
-9 -49 -13 -68 -18 -83 -3 -9 -8 -33 -10 -52 -3 -19 -8 -46 -11 -60 -3 -14 -7
-38 -10 -55 -2 -16 -16 -88 -31 -160 -14 -71 -27 -143 -29 -160 -2 -16 -4 -31
-5 -32 -2 -2 -3 -6 -4 -10 -4 -19 -18 -90 -22 -113 -7 -37 -23 -122 -28 -150
-3 -13 -8 -42 -12 -64 -3 -22 -7 -43 -9 -47 -5 -6 -14 -57 -21 -106 -2 -18 -8
-52 -13 -75 -6 -24 -12 -56 -15 -73 -3 -16 -8 -41 -11 -55 -2 -14 -9 -47 -15
-75 -5 -27 -12 -63 -15 -80 -3 -16 -7 -41 -10 -55 -3 -14 -7 -36 -10 -50 -3
-14 -7 -34 -9 -45 -2 -11 -11 -58 -20 -105 -17 -89 -22 -119 -31 -160 -2 -14
-7 -40 -10 -58 -3 -18 -12 -64 -20 -103 -8 -39 -15 -74 -15 -79 0 -5 297 -9
664 -8 l664 0 -4 26 c-2 15 -9 47 -14 72 -5 25 -12 56 -14 70 -2 14 -11 58
-20 99 -9 41 -14 77 -11 79 2 3 0 12 -5 21 -4 9 -11 37 -15 61 -3 25 -8 53
-11 62 -5 18 -9 35 -24 120 -14 76 -19 98 -25 128 -6 27 -10 43 -26 130 -6 30
-12 65 -15 78 -2 12 -6 32 -8 45 -2 12 -11 56 -19 97 -9 41 -19 93 -23 115 -5
22 -8 46 -7 53 0 6 -2 12 -6 12 -3 0 -6 10 -7 23 -1 25 -14 99 -19 107 -2 3
-6 24 -9 46 -9 55 -14 82 -22 106 -3 12 -7 35 -9 52 -1 17 -5 38 -8 46 -2 8
-24 114 -46 235 -23 121 -45 231 -48 245 -3 14 -7 34 -9 45 -1 11 -10 56 -19
100 -9 44 -18 89 -20 101 -1 11 -8 45 -14 75 -12 59 -19 91 -26 129 -3 14 -12
59 -20 100 -9 41 -18 89 -20 105 -2 17 -11 62 -20 100 -9 39 -18 86 -20 105
-3 19 -9 55 -15 80 -5 25 -12 57 -15 73 -5 26 -8 43 -21 105 -6 34 -16 83 -18
100 -1 7 -7 17 -13 23 -8 8 -14 1 -21 -23z"/>
<path d="M3230 1480 c-14 -4 -36 -5 -50 -2 -14 2 -22 2 -18 -2 3 -4 2 -21 -3
-38 -5 -17 -11 -50 -15 -72 -3 -23 -12 -68 -19 -101 -8 -33 -17 -76 -20 -95
-3 -19 -8 -48 -12 -65 -3 -16 -6 -37 -8 -45 -1 -8 -6 -33 -11 -55 -10 -51 -11
-53 -14 -62 -1 -5 -3 -12 -4 -18 -1 -5 -6 -35 -11 -65 -10 -60 -11 -69 -15
-72 -1 -2 -3 -14 -5 -28 -3 -21 -36 -190 -51 -255 -2 -11 -7 -36 -10 -55 -3
-19 -9 -53 -14 -75 -5 -22 -12 -56 -15 -75 -3 -19 -8 -43 -11 -53 -3 -10 -7
-30 -9 -46 -4 -28 -2 -30 73 -51 42 -12 86 -23 97 -25 11 -1 38 -8 60 -14 22
-6 43 -11 47 -12 4 0 34 -7 65 -14 32 -7 74 -16 93 -19 19 -3 44 -7 55 -10 54
-11 207 -31 335 -43 156 -15 668 -7 784 13 15 2 49 7 75 9 43 4 67 8 131 20
14 3 43 8 65 11 22 3 87 17 145 30 58 14 116 27 130 30 14 2 36 9 50 13 25 10
79 24 93 25 11 1 27 29 21 37 -4 7 -20 83 -29 134 -2 11 -6 38 -10 60 -3 22
-8 47 -10 55 -3 8 -7 33 -11 55 -3 22 -8 43 -10 46 -2 4 -6 24 -9 45 -3 22 -7
49 -10 62 -3 12 -7 30 -9 41 -2 10 -7 34 -10 52 -3 19 -13 70 -21 114 -9 44
-19 91 -21 105 -3 14 -12 63 -21 110 -9 47 -17 94 -19 105 -2 11 -5 30 -8 43
-10 38 -13 55 -21 107 -4 28 -7 52 -8 55 0 3 -6 23 -12 45 l-12 40 -599 2
c-329 1 -624 2 -654 2 -30 1 -145 0 -256 -1 -110 -1 -205 1 -210 4 -5 3 -20 2
-34 -2z"/>
</g>
</svg>
